<?xml version="1.0" encoding="UTF-8"?>
<svg id="Layer_1" data-name="Layer 1" xmlns="http://www.w3.org/2000/svg" viewBox="0 0 975.06 1064.28">
  <defs>
    <style>
      .cls-1, .cls-2, .cls-3, .cls-4, .cls-5, .cls-6, .cls-7, .cls-8, .cls-9, .cls-10 {
        stroke-width: 3px;
      }

      .cls-1, .cls-2, .cls-11, .cls-4, .cls-5, .cls-12, .cls-13, .cls-14, .cls-15, .cls-16, .cls-9 {
        stroke-linejoin: round;
      }

      .cls-1, .cls-2, .cls-11, .cls-4, .cls-5, .cls-13, .cls-14, .cls-6, .cls-16 {
        fill: none;
      }

      .cls-1, .cls-3, .cls-13, .cls-15, .cls-8 {
        stroke: #333;
      }

      .cls-1, .cls-5 {
        stroke-linecap: square;
      }

      .cls-2, .cls-11, .cls-4, .cls-12, .cls-13, .cls-14, .cls-15, .cls-16, .cls-9 {
        stroke-linecap: round;
      }

      .cls-2, .cls-9 {
        stroke: #000;
      }

      .cls-3, .cls-6, .cls-7, .cls-8, .cls-17, .cls-10 {
        stroke-miterlimit: 10;
      }

      .cls-3, .cls-18 {
        fill: #666;
      }

      .cls-11, .cls-4, .cls-5, .cls-6, .cls-17 {
        stroke: #423936;
      }

      .cls-11, .cls-12, .cls-13 {
        stroke-width: 4px;
      }

      .cls-12 {
        fill: #8cc63f;
        stroke: #006837;
      }

      .cls-14, .cls-7, .cls-16 {
        stroke: #1a1a1a;
      }

      .cls-19 {
        fill: #4d4d4d;
      }

      .cls-15, .cls-7 {
        fill: #333;
      }

      .cls-20, .cls-17 {
        fill: #423936;
      }

      .cls-8 {
        fill: #999;
      }

      .cls-16 {
        stroke-width: 1.5px;
      }

      .cls-9, .cls-21 {
        fill: #1a1a1a;
      }

      .cls-10 {
        fill: gray;
        stroke: #4d4d4d;
      }
    </style>
  </defs>
  <g id="Layer_5" data-name="Layer 5">
    <path class="cls-17" d="M57.9,716.3h0c1.66,31.23,26.64,56.22,57.88,57.88h0c-31.23,1.66-56.22,26.64-57.88,57.88h0c-1.66-31.23-26.64-56.22-57.88-57.88H.03c31.23-1.66,56.22-26.64,57.88-57.88h0Z"/>
    <path class="cls-17" d="M931.31,262.86h0c1.27,23.62,20.11,42.46,43.72,43.72h0c-23.62,1.27-42.46,20.11-43.72,43.72h0c-1.27-23.62-20.11-42.46-43.72-43.72h0c23.62-1.27,42.46-20.11,43.72-43.72h0Z"/>
    <path class="cls-4" d="M235.04,348.45v155.08c0,13.27-9.86,24.11-22.06,24.11H35.26c-12.2,0-22.06-10.74-22.06-24.11v-236.58c0-13.27,9.86-24.11,22.06-24.11h103.75"/>
    <path class="cls-6" d="M138.32,243.63l.49,80.71c0,13.27,10.05,24.01,22.25,23.91l74.66-.59"/>
    <line class="cls-4" x1="139.01" y1="242.85" x2="235.04" y2="347.67"/>
    <line class="cls-11" x1="76.93" y1="295.65" x2="112.36" y2="295.95"/>
    <line class="cls-11" x1="44.53" y1="295.26" x2="66.98" y2="295.56"/>
    <line class="cls-11" x1="89.82" y1="321.22" x2="112.07" y2="321.42"/>
    <line class="cls-11" x1="44.24" y1="320.74" x2="78.4" y2="321.13"/>
    <line class="cls-11" x1="66.98" y1="346.4" x2="112.27" y2="346.89"/>
    <line class="cls-11" x1="44.53" y1="346.21" x2="55.85" y2="346.31"/>
    <line class="cls-11" x1="180.1" y1="372.95" x2="210.06" y2="373.24"/>
    <line class="cls-11" x1="127.98" y1="372.46" x2="167.51" y2="372.85"/>
    <line class="cls-11" x1="78.2" y1="371.98" x2="119.39" y2="372.37"/>
    <line class="cls-11" x1="44.63" y1="371.68" x2="66.98" y2="371.88"/>
    <line class="cls-11" x1="189.56" y1="398.52" x2="209.86" y2="398.72"/>
    <line class="cls-11" x1="156.09" y1="398.23" x2="178.83" y2="398.42"/>
    <line class="cls-11" x1="101.24" y1="397.64" x2="146.23" y2="398.13"/>
    <line class="cls-11" x1="44.34" y1="397.06" x2="89.72" y2="397.55"/>
    <line class="cls-11" x1="200.69" y1="424.09" x2="210.74" y2="424.19"/>
    <line class="cls-11" x1="137.93" y1="423.41" x2="187.03" y2="423.9"/>
    <line class="cls-11" x1="86.79" y1="422.92" x2="127.98" y2="423.41"/>
    <line class="cls-11" x1="45.21" y1="422.53" x2="76.93" y2="422.82"/>
    <line class="cls-13" x1="175.51" y1="449.47" x2="209.57" y2="449.86"/>
    <line class="cls-13" x1="120.66" y1="448.98" x2="164.38" y2="449.37"/>
    <line class="cls-13" x1="72.74" y1="448.49" x2="109.83" y2="448.88"/>
    <line class="cls-13" x1="44.14" y1="448.2" x2="62.88" y2="448.4"/>
    <line class="cls-13" x1="188.29" y1="475.04" x2="209.38" y2="475.23"/>
    <line class="cls-13" x1="144.57" y1="474.65" x2="178.05" y2="474.94"/>
    <line class="cls-13" x1="86.01" y1="474.06" x2="130.91" y2="474.55"/>
    <line class="cls-13" x1="43.85" y1="473.67" x2="74.88" y2="473.97"/>
    <path class="cls-20" d="M263.93,334.6c16.4,1.37,33.28,2.73,49.48-.88,13.86-3.03,26.35-10.15,36.01-20.5,8.98-9.66,15.52-21.47,19.91-33.87,2.34-6.44,4-13.18,5.17-19.91s1.95-13.37,1.85-20.01-1.17-13.47-4.68-19.23c-3.12-5.27-8.3-9.17-14.44-10.15-11.42-1.85-23.23,5.27-28.79,15.13-3.32,5.95-5.08,14.25-.68,20.01s12.2,8.78,18.93,10.25c14.84,3.12,30.65-.88,43.53-8.39,27.62-16.01,44.31-45.58,72.61-60.61,3.42-1.85,6.93-3.32,10.64-4.59,2.44-.78,1.37-4.59-1.07-3.81-28.99,9.76-46.85,36.11-69.39,55.05-11.22,9.47-24.3,17.18-39.04,19.03-6.93.88-14.05.49-20.69-1.76-6.25-2.05-14.25-6.05-14.15-13.66.2-11.13,10.35-20.69,20.79-22.74,4.98-.98,10.15,0,14.15,3.32,4.88,4,7.03,10.15,7.81,16.2.78,6.05.29,12.88-.49,19.23s-2.05,12.59-3.81,18.64c-3.51,12.1-8.78,23.81-16.49,33.67s-17.76,17.86-29.67,22.15c-14.64,5.27-30.55,5.27-45.87,4.29-3.9-.29-7.81-.59-11.71-.88-2.54-.2-2.54,3.71,0,4h.1Z"/>
    <polygon class="cls-15" points="461.86 159.11 482.94 203.23 507.05 164.68 461.86 159.11"/>
    <path class="cls-1" d="M804.14,115.1v155.08c0,13.27-9.86,24.11-22.06,24.11h-177.73c-12.2,0-22.06-10.74-22.06-24.11V33.6c0-13.27,9.86-24.11,22.06-24.11h177.82c12.59,0,22.74,10.25,22.64,22.84l-.68,82.67h0v.1Z"/>
    <polygon class="cls-12" points="650.42 124.86 620.46 149.16 668.28 198.25 773.98 113.63 747.05 88.06 671.31 162.92 650.42 124.86"/>
    <path class="cls-5" d="M582.89,115.1v155.08c0,13.27,9.86,24.11,22.06,24.11h177.73c12.2,0,22.06-10.74,22.06-24.11V33.6c0-13.27-9.86-24.11-22.06-24.11h-177.82c-12.59,0-22.74,10.25-22.64,22.84l.68,82.67h0v.1Z"/>
    <path class="cls-17" d="M202.93.03h0c1.27,23.62,20.11,42.46,43.72,43.72h0c-23.62,1.27-42.46,20.11-43.72,43.72h0c-1.27-23.62-20.11-42.46-43.72-43.72h0c23.62-1.27,42.46-20.11,43.72-43.72h0Z"/>
  </g>
  <g id="Layer_6" data-name="Layer 6">
    <path class="cls-9" d="M630.51,481.87c.88-.78-3.12-3.12-8.39-3.71-5.17-.59-11.61.39-12,1.27-.68,1.56,18.74,3.9,20.4,2.44h0Z"/>
    <path class="cls-21" d="M612.26,567.56c-4.1-3.42-17.86-12-18.06-28.3-.1-10.35,3.12-14.44,13.27-37.77,2.93-6.64,10.05-24.3,14.54-36.6.78-2.24,3.71-10.15,4.78-9.96.1,0,.2.1.29.39,2.24,5.95,7.61,25.08,27.52,37.48,2.83,1.76,17.47,10.35,25.38,14.93,2.64,1.56,6.83,3.9,8.2,8.39,1.46,4.78,1.37,6.44.68,9.86-.59,3.03,7.32-4,14.35-3.71,6.54.29,13.76,6.15,14.84,13.08,1.46,10.05-11.13,17.18-13.47,18.54-7.71,4.39-15.32,4.1-18.74,3.71-.49,6.34-8.1,15.71-11.81,25.57,0,.1,0,.2-.1.29-4.39,12,3.81,24.79,16.49,26.16,10.54,1.17,23.13,1.27,36.89-.98,17.76-2.93,31.82-8.88,41.28-13.96-5.17-11.61-7.03-21.28-7.71-27.91-1.27-12.2.78-17.86.29-40.11-.2-8.39-.29-12.59-.88-17.37-.88-7.52-1.66-33.38-12.79-51.04-13.18-20.89-33.28-27.52-39.43-30.55-7.12-3.42-48.99-17.08-79.64,4.68-9.47,6.73-14.93,15.32-17.96,21.28-2.15,12.98-6.54,30.35-16.01,49.19-13.66,27.23-31.82,45.19-44.11,55.53-.88.78-.98,2.15,0,3.03,8.49,7.61,21.28,17.27,38.65,24.99,17.57,7.81,35.33,12.49,46.46,13.76.1-2.73,0-6.93-1.66-11.52-3.9-10.44-12.59-13.57-21.67-21.18h0l.1.1Z"/>
    <path class="cls-21" d="M615.97,500.42c-1.07-2.05-5.66-5.56,1.85-5.66,2.83,0,5.86.78,8.1,2.54,2.24,1.85-.68,5.66-3.42,6.54s-5.08-.88-6.54-3.42Z"/>
    <path class="cls-2" d="M613.73,542.09c1.46,1.07,12,8.1,24.5,4.29,6.93-2.05,11.13-6.44,12.98-8.69"/>
    <path class="cls-2" d="M500.61,564.15l-9.47-64.51c0-.59-.2-1.17-.49-1.66l-23.13-56.61c-1.66-3.32-4.98-5.27-7.91-4.78-4,.59-7.42,5.37-5.95,10.74,4,11.32,8.1,22.64,12.1,33.96.68,1.56,1.27,3.22,1.76,4.98.88,2.93,2.15,15.23,2.34,17.76.2,1.66-1.27,1.76-3.22,1.17-3.42-.88-8.49-3.51-11.32-3.71h-8.78c-1.07,0-2.24,0-3.32.39-3.51.88-8.39,2.83-9.17,5.47-1.27,3.9,4.88,7.42,8.78,8.49,0,0,8.49,2.34,8.59,2.34l7.81,2.15c.59.2,2.44.78,3.81,2.54.98,1.17,1.46,2.73,1.56,4.29l.2,12.69c.39,1.76,1.07,4.39,2.93,7.22,1.46,2.24,3.12,3.9,4.29,4.88"/>
    <path class="cls-2" d="M448.79,501.49l-2.34-7.61c-.59-2.05-.68-4.2-.29-6.34h0c1.07-4.98,4.88-8.69,9.76-9.56.98-.2,1.95,0,2.83.29,1.17.59,2.64,1.37,4,2.54,3.9,3.42,5.17,7.81,5.66,9.76"/>
    <path class="cls-2" d="M445.47,490.75l-2.34-.29c-3.42-.39-6.73,1.07-8.59,3.81h0c-1.37,1.95-1.76,4.29-1.27,6.54l1.27,5.37"/>
    <path class="cls-2" d="M433.27,504.81l-3.81.78c-1.07.29-1.85.88-2.24,1.17-2.24,1.85-2.64,5.17-2.24,7.32.1.68.29,1.17.49,1.56l4.98,10.15c.88,2.24,2.64,3.71,4.39,3.61,1.56,0,2.64-1.37,2.93-1.66,2.15-2.64,1.07-6.73.39-9.47-.39-1.46-.88-2.54-1.17-3.32"/>
    <path class="cls-2" d="M437.66,527.84l2.93,9.66c.59,1.95.88,4,.98,5.95l.29,8.59c.1,4.49,1.56,8.88,4.29,12.88l7.42,10.83"/>
    <path class="cls-2" d="M461.38,487.92c1.27,2.64,2.64,5.76,3.61,9.47.78,2.83,1.37,5.47,1.66,7.81,2.15.59,4.29,1.27,6.54,1.85"/>
    <path class="cls-21" d="M659.4,509.2c1.85-1.37,7.52-2.73.29-6.05-2.73-1.27-5.95-1.76-8.78-1.07s-1.46,5.56.88,7.52,5.27,1.37,7.52-.39h.1Z"/>
    <path class="cls-2" d="M617.53,519.25c-.2-.39-1.76-3.9,0-6.73,1.85-3.03,6.73-4.2,11.13-1.76"/>
    <path class="cls-2" d="M823.08,1003.54l10.44,4.2c1.46.78,8.39,1.17,9.27,8.1,0,.78.1,1.56,0,2.54,18.74.68,37.48,1.46,56.22,2.15,7.52-.68,11.52-2.15,12-4.39,1.27-6.15-22.25-18.15-70.56-36.01"/>
    <path class="cls-2" d="M842.79,1018.37h0c0,1.76-.98,3.32-2.54,3.81-3.51,1.27-7.32,1.56-11.03.88l-26.55-4.49c-11.71-1.95-21.67-10.64-25.96-22.64l-1.37-3.81"/>
    <path class="cls-3" d="M620.95,611.58c-51.24,4.98-78.76,74.86-82.08,83.54h0c-1.66-12.4-4.1-30.06-7.52-51.14-10.15-63.15-14.44-69.88-20.3-73.78-21.67-14.54-71.83,3.51-83.64,33.87-8.59,22.35-14.44,60.32,26.16,146.5,2.83,6.05,38.84-3.42,54.56,11.52,1.56,1.46,7.42,11.42,25.47,19.52,2.73,1.17,26.16-17.27,33.96-31.33.78-1.37,1.37-2.83,1.85-4.2,1.46-4.59,1.17-8.39,1.17-9.37-.49-9.27,3.12-51.63,5.76-64.51,2.83-13.96,15.32-41.38,44.8-60.51"/>
    <path class="cls-10" d="M543.85,753.78c-7.32,13.27-4.1,22.55-10.35,27.82l23.52,23.91c21.37,22.84,44.02,40.11,65.29,62.95h0c30.35,10.83,60.8,21.57,91.16,32.4h0l12.79-67.05s2.05,35.14,4.39,64.9c5.37,69,10.25,83.74,21.37,89.11,1.56.78,6.93,1.27,17.76,2.54,9.96,1.17,24.59,2.34,42.36,2.24,27.62-.2,41.48-.29,45.48-4,29.67-26.64-41.38-271.03-110.58-347.06-6.93-7.61,30.65,38.06,0,0-8.69-10.83-30.16-37.77-51.14-33.57-18.64,3.81-38.84,26.45-52.22,30.06-13.08,3.51-12.88-5.56-11.22-26.16-2.05-.29-4.68-.49-7.81-.49,0,0-1.95,0-4,.2-3.32.29-45.38,10.35-60.8,55.92-13.18,38.84.29,56.02-16.3,86.28h.29Z"/>
    <path class="cls-16" d="M634.52,596.35c0,1.95,0,4.59-.2,7.71-.2,2.34-.39,4-.59,5.56"/>
    <path class="cls-14" d="M690.15,545.7c5.27-2.44,6.54-4.29,6.44-5.66-.2-1.95-3.22-2.73-3.22-4.68,0-1.66,2.05-3.03,4.2-4"/>
    <path class="cls-18" d="M727.14,823.47c-.49-7.81-3.32-21.18-5.76-31.13-3.22-13.57-19.52-69.39-23.81-78.18,3.71,20.98,17.96,102.97,18.15,130.78,0,19.81-1.17,37.97-3.12,54.07,4.29-22.35,10.25-53.19,14.54-75.54h0Z"/>
    <path class="cls-21" d="M192.39,984.99c.78-.39,54.66-28.89,55.34-29.28"/>
    <path class="cls-3" d="M229.09,926.43l67.34,23.72c7.71,3.32,6.64,12.88,7.32,21.28l2.05,24.11c0,1.07.1,2.15,0,3.22l-.49,9.08c-.59,10.93-8.98,19.91-19.81,21.28l-70.37-.68c-.98.1-22.74,6.93-23.72,6.93l-49.68,2.54c-.68,0-1.37,0-2.05-.1l-16.01-1.46c-7.81-.78-14.64-5.37-18.15-12.39h0c-4.29-8.59-2.83-18.93,3.81-25.96l52.12-26.74,67.64-44.9h0v.1Z"/>
    <path class="cls-8" d="M247.73,955.71l65.2,29.28c7.42,3.9,5.56,13.47,5.56,21.86v24.2c0,1.07,0,2.15-.2,3.22l-1.27,8.98c-1.56,10.83-10.64,19.03-21.57,19.52l-53.19-4.98c-11.32-1.07-22.64-.39-33.77,1.95-3.9.78-15.42,1.17-15.71,1.17l-41.38-1.37c-.68,0-1.37-.1-1.95-.29l-15.81-2.83c-7.71-1.37-14.15-6.64-17.08-13.86h0c-3.61-8.88-1.27-19.13,5.95-25.47l54.17-22.25,71.15-39.04h0l-.1-.1Z"/>
    <path class="cls-21" d="M368.07,846.99c28.99,52.31,58.46,91.55,80.71,118.09,46.55,55.63,85.5,72.32,100.82,75.35,44.8,8.69,92.04,7.32,66.56-29.57-23.72-34.35,48.02-69.69,39.53-113.21l-87.84-31.91c-93.01-91.25-170.99-149.03-195.3-161.14-11.13-5.56-20.89-5.27-20.89-5.27,0,0-19.23-.59-33.67,7.81-27.72,16.01-54.56,60.02-56.41,63.63-56.51,108.82-70.66,141.42-89.5,181.83-8.88,19.13,37.87,15.71,48.02,17.86,2.34.49,47.04-5.27,76.22-21.67,6.93-3.9,17.37,24.5,37.19-19.71,24.99-55.83,29.77-68.03,34.65-81.98,5.56-16.01,9.76-29.87,12.59-40.21"/>
    <path class="cls-7" d="M412.28,842.01c29.67,57.19,60.22,100.14,83.15,129.22,48.12,61,70.27,70.37,86.28,73.78,46.94,10.05,85.2-19.03,88.81-21.86,34.84-27.52,51.34-74.96,43.04-122.39l-91.74-35.82c-96.43-100.33-179.19-164.36-201.05-167.38-12.88-1.76-24.69,0-24.69,0,0,0-15.91,2.44-31.13,11.32-29.28,17.08-49.19,55.53-51.24,59.44-57.68,111.26-86.57,144.25-109.12,176.95-31.04,44.9-61,46.94,17.57,70.76,10.15,3.03,87.55,15.23,120.05-6.93,11.52-7.81,11.32-30.94,32.7-78.66,27.03-60.32,32.11-73.49,37.38-88.52,6.05-17.37,10.64-32.21,13.76-43.43"/>
    <path class="cls-19" d="M556.83,660.48c-6.15,12.1-12.2,24.11-18.35,36.21"/>
  </g>
</svg>