<?xml version="1.0" encoding="UTF-8"?>
<svg xmlns="http://www.w3.org/2000/svg" version="1.1" viewBox="0 0 400 386.8">
  <!-- Generator: Adobe Illustrator 29.4.0, SVG Export Plug-In . SVG Version: 2.1.0 Build 152)  -->
  <defs>
    <style>
      .st0 {
        fill: #fff;
      }

      .st0, .st1 {
        fill-rule: evenodd;
      }

      .st1 {
        stroke: #fff;
        stroke-miterlimit: 10;
      }
    </style>
  </defs>
  <g id="Layer_2">
    <path class="st0" d="M101.2,194l51,11.6v26.7h26.1l11.3,56.3,18.4-58.7,23.1,1.8-2.4-16.6,45-21.1-36.7-8.5-8.3-27.3h-20.1l-16.6-53.9-14.8,51-21.3.6-1.2,23.1-53.3,15Z"/>
  </g>
  <g id="svg">
    <g id="svgg">
      <path id="path0" class="st1" d="M183.1,75.6c-5,39.9-9.7,73.2-10.3,74-1.6,2-.4,2.7-32.8-19.9-16.1-11.2-30.7-21.3-32.5-22.4l-3.3-2.1,2.8,3.8c15.6,21.2,43,62.1,42.5,63.4-.8,2.2,1.9,1.8-76.2,11.6C7.8,192.3-2,193.6,2.1,193.9c3.4.2,141.8,17.8,144.2,18.3,1.4.3,2.8,1.3,3.1,2.2.5,1.3-27.4,42.9-42.5,63.4l-2.8,3.8,3.3-2.1c1.8-1.2,16.4-11.3,32.5-22.4,32.5-22.6,31.2-21.8,32.8-19.8.6.8,5.3,34,10.3,73.8,5,39.8,9.4,72.2,9.7,71.9.3-.3,4.6-33.1,9.7-72.9,5-39.8,9.6-72.8,10.2-73.4,1.5-1.5,1.3-1.7,35.4,22.2,17.3,12.1,31.5,21.9,31.7,21.7.2-.2-9.3-14-20.9-30.7-11.7-16.8-21.9-31.4-22.7-32.5-3-4.4-1.1-4.7,80-15,43.1-5.4,78.4-10.2,78.4-10.5s-32.1-3-71.3-5.9c-89-6.6-83.9-6.1-86.5-8.7s-2.5-5,20.6-38.1c12-17.2,21.6-31.4,21.4-31.6-.2-.2-14.6,9.6-32.1,21.7-17.5,12.1-32.4,21.8-33.2,21.5-1.9-.7-1.4,2.5-11.1-75.7-4.6-37.3-8.8-68.7-9.2-69.8s-4.9,30.6-9.9,70.5M195.6,134.4c3.4,26.4,9.8,34.4,23.3,29.5,4.5-1.6,4.8-1.6,4,0-6.8,14.9,4.3,29.7,22.6,30,12,.2,12.4,1.6.8,3-21.3,2.6-29.7,11.9-23.4,25.7.8,1.7.5,1.7-4,0-13.6-4.9-19.9,3.2-23.3,29.5-1.3,10.3-2.7,19-3,19.3-.3.3-1.4-6.8-2.5-15.7-3.5-29.6-9.6-38-24.1-33l-4.9,1.7,1.5-2.9c4.1-7.9-.7-18.7-9.7-22.1-2.6-1-34.9-5.6-39.3-5.6-4.8,0,1.5-1.1,17.8-3.2,10.1-1.3,19.8-2.9,21.5-3.5,9.1-3.4,13.9-14.2,9.8-22.1l-1.5-2.9,4.9,1.7c14.5,4.9,20.6-3.4,24.1-33,1.1-8.9,2.2-16,2.5-15.7.3.3,1.6,9,3,19.3"/>
    </g>
  </g>
</svg>